<svg width="44" height="45" viewBox="0 0 44 45" fill="none" xmlns="http://www.w3.org/2000/svg">
<g filter="url(#filter0_b_279_14939)">
<circle cx="21.8645" cy="22.4563" r="21.5701" fill="white" fill-opacity="0.35"/>
</g>
<path d="M13.7759 15.9433C13.7759 14.6779 15.1941 13.9301 16.2385 14.6455L25.6736 21.1112C25.8836 21.2551 26.0555 21.4479 26.1745 21.6729C26.2936 21.8979 26.3563 22.1485 26.3572 22.403C26.358 22.6576 26.2971 22.9086 26.1796 23.1344C26.0621 23.3603 25.8916 23.5542 25.6826 23.6996L16.2466 30.2623C15.2049 30.9876 13.7759 30.2398 13.7759 28.9708V15.9433ZM29.9535 15.0419C29.9535 14.8631 29.8824 14.6917 29.756 14.5653C29.6296 14.4388 29.4582 14.3678 29.2794 14.3678C29.1006 14.3678 28.9292 14.4388 28.8028 14.5653C28.6763 14.6917 28.6053 14.8631 28.6053 15.0419V29.8713C28.6053 30.0501 28.6763 30.2216 28.8028 30.348C28.9292 30.4744 29.1006 30.5454 29.2794 30.5454C29.4582 30.5454 29.6296 30.4744 29.756 30.348C29.8824 30.2216 29.9535 30.0501 29.9535 29.8713V15.0419Z" fill="white"/>
<defs>
<filter id="filter0_b_279_14939" x="-15.7056" y="-15.1138" width="75.1401" height="75.1401" filterUnits="userSpaceOnUse" color-interpolation-filters="sRGB">
<feFlood flood-opacity="0" result="BackgroundImageFix"/>
<feGaussianBlur in="BackgroundImageFix" stdDeviation="8"/>
<feComposite in2="SourceAlpha" operator="in" result="effect1_backgroundBlur_279_14939"/>
<feBlend mode="normal" in="SourceGraphic" in2="effect1_backgroundBlur_279_14939" result="shape"/>
</filter>
</defs>
</svg>
