<svg width="32" height="32" viewBox="0 0 32 32" fill="none" xmlns="http://www.w3.org/2000/svg">
<path fill-rule="evenodd" clip-rule="evenodd" d="M0 24.7274H2.03644C2.03644 26.6618 2.80725 28.5092 4.15987 29.8764C5.52725 31.2292 7.37444 32 9.30906 32V29.0909C8.1455 29.0909 7.04006 28.6255 6.2255 27.8109C5.41088 26.9964 4.94556 25.8909 4.94556 24.7273H6.98175L3.49088 20.3635L0 24.7274ZM22.6453 29.2008L29.2031 22.6429C30.9065 20.9396 30.9065 18.1877 29.2031 16.4841L15.5308 2.79706C13.8289 1.09525 11.0583 1.09525 9.35706 2.79681L2.79688 9.357C1.09525 11.0583 1.09525 13.8289 2.79688 15.5302L16.4674 29.2008C18.1716 30.9219 20.9411 30.9219 22.6453 29.2008ZM5.96769 10.3003L6.31275 10.4146C6.53094 10.4872 6.7635 10.5018 6.99638 10.4438C7.21456 10.3854 7.43281 10.269 7.59275 10.1091L10.1091 7.65075C10.269 7.47625 10.3709 7.27262 10.4146 7.04006C10.4581 6.80725 10.4292 6.57444 10.3562 6.35619L10.2451 6.02256L11.414 4.85381C11.9815 4.28638 12.9058 4.28638 13.4732 4.85381L27.1458 18.5408C27.7118 19.1067 27.7118 20.0205 27.1461 20.5859L20.5828 27.1493C20.0156 27.7237 19.0972 27.7237 18.5334 27.1526L18.5299 27.1493L4.85394 13.4732C4.2865 12.9058 4.2865 11.9815 4.85394 11.4141L5.96769 10.3003ZM27.0544 7.27262H25.0182L28.5091 11.6364L32 7.27262H29.9635C29.9635 5.33825 29.1927 3.49088 27.8401 2.12369C26.4726 0.770813 24.6256 0 22.6909 0V2.90913C23.8544 2.90913 24.9599 3.3745 25.7745 4.18906C26.589 5.00362 27.0544 6.10913 27.0544 7.27262Z" fill="white"/>
</svg>
