<svg width="31" height="25" viewBox="0 0 31 25" fill="none" xmlns="http://www.w3.org/2000/svg">
<path d="M1.55 24.8C0.620002 24.8 0 24.18 0 23.25C0 22.32 0.620002 21.7 1.55 21.7C2.48001 21.7 3.10001 22.32 3.10001 23.25C3.10001 24.18 2.48001 24.8 1.55 24.8ZM7.75002 24.8C6.82002 24.8 6.20002 24.18 6.20002 23.25C6.20002 22.01 5.73502 20.77 4.80501 19.995C4.03001 19.065 2.79001 18.6 1.55 18.6C0.620002 18.6 0 17.98 0 17.05C0 16.12 0.620002 15.5 1.55 15.5C3.56501 15.5 5.58002 16.275 6.97502 17.825C8.52502 19.22 9.30003 21.235 9.30003 23.25C9.30003 24.18 8.68003 24.8 7.75002 24.8Z" fill="white"/>
<path d="M13.95 24.8001C13.02 24.8001 12.4 24.1801 12.4 23.2501C12.4 20.3051 11.315 17.6701 9.14503 15.5001C7.13002 13.4851 4.34001 12.4001 1.55 12.4001C0.620002 12.4001 0 11.7801 0 10.8501C0 9.92005 0.620002 9.30005 1.55 9.30005C5.27002 9.30005 8.83503 10.6951 11.47 13.3301C14.105 15.9651 15.5 19.5301 15.5 23.2501C15.5 24.1801 14.88 24.8001 13.95 24.8001Z" fill="white"/>
<path d="M24.8 24.8001H20.1499C19.2199 24.8001 18.5999 24.1801 18.5999 23.2501C18.5999 22.3201 19.2199 21.7001 20.1499 21.7001H24.8C25.575 21.7001 26.35 21.3901 26.97 20.7701C27.59 20.1501 27.9 19.3751 27.9 18.6001V6.20002C27.9 5.42502 27.59 4.65001 26.97 4.03001C26.35 3.41001 25.575 3.10001 24.8 3.10001H6.1999C5.5799 3.10001 4.9599 3.25501 4.49489 3.72001C4.02989 4.03001 3.56489 4.65001 3.40989 5.27002C3.09989 6.04502 2.16989 6.35502 1.39489 6.04502C0.464883 5.89002 0.154882 4.96001 0.464883 4.18501C0.774884 2.94501 1.54989 1.86001 2.63489 1.085C3.71989 0.465001 4.9599 0 6.1999 0H24.8C26.505 0 28.055 0.620002 29.14 1.86001C30.38 2.94501 31 4.49501 31 6.20002V18.6001C31 20.3051 30.38 21.8551 29.14 22.9401C27.9 24.0251 26.505 24.8001 24.8 24.8001Z" fill="white"/>
</svg>
